<svg version="1.1" xmlns="http://www.w3.org/2000/svg" xmlns:xlink="http://www.w3.org/1999/xlink" x="0px"
	 y="0px" viewBox="0 0 350 350" style="enable-background:new 0 0 350 350;" xml:space="preserve">
<style type="text/css">
	.st0{clip-path:url(#SVGID_00000161631918750245733630000008509943754077753015_);}
	.st1{fill:#35785D;}
	.st2{fill:#5A753D;}
	.st3{fill:#92BB6D;}
	.st4{fill:#D8B69E;}
	.st5{fill:#BC917B;}
	.st6{fill:#846651;}
	.st7{fill:#54A984;}
	.st8{fill:#E1C3AF;}
	.st9{fill:#FFFFFF;}
	.st10{fill:#B8D487;}
	.st11{fill:#474747;}
	.st12{fill:#72C29F;}
	.st13{fill:#3F886F;}
	.st14{fill:#446125;}
	.st15{fill:#709653;}
	.st16{fill:#2B2B2B;}
	.st17{fill:#6F7173;}
</style>
<g>
	<defs>
		<rect id="SVGID_1_" x="1.2" y="-0.2" width="350" height="350"/>
	</defs>
	<clipPath id="SVGID_00000098908992176356905030000018061740474712689314_">
		<use xlink:href="#SVGID_1_"  style="overflow:visible;"/>
	</clipPath>
	<g style="clip-path:url(#SVGID_00000098908992176356905030000018061740474712689314_);">
		<polygon class="st1" points="183.6,41.6 198.9,14.3 162.5,17.5 		"/>
		<path class="st2" d="M105.4,292.9c-24.3,25-48.5,50-72.8,75.1c8.1,7.8,16.1,15.7,24.2,23.5l25.5-9.7l19.8-45.1L105.4,292.9
			L105.4,292.9z"/>
		<path class="st2" d="M230.7,303c17.6,24,35.1,48.1,52.7,72.1c-0.7,11.1-1.3,22.2-2,33.2l-45.3-27.2l-11.3-36L230.7,303L230.7,303z
			"/>
		<polygon class="st3" points="176.1,348.3 166.8,398 127,407.8 82.3,381.8 105.4,292.9 162.1,307.9 		"/>
		<polygon class="st4" points="121.1,276.2 160.2,291.4 183.1,278.1 194.3,269.1 244.5,266.3 250.8,127.7 241.8,93.4 204.5,104.3 
			131.3,114.5 114.2,145.1 120,182.6 94.8,192.8 		"/>
		<polygon class="st5" points="156.8,270.4 150.1,139.7 144.2,115.3 119.5,138 109.3,172.7 82.5,186.1 95.6,216.6 101.7,221.4 
			103.3,234.7 120.7,275.4 136.3,295 162.1,307.9 154.4,278.8 		"/>
		<polygon class="st6" points="95.6,216.6 112.2,209.6 103.3,234.7 		"/>
		<polygon class="st7" points="198.9,14.3 166.3,49.7 165.1,79.5 209.3,119.2 218.5,65 		"/>
		<polygon class="st6" points="92.1,190.7 102.8,185.8 109.2,203.4 		"/>
		<polygon class="st8" points="215.2,205.8 200.4,206.2 198.6,159.1 213.4,158.7 		"/>
		<polygon class="st6" points="215.2,205.8 207.1,212.8 200.4,206.2 		"/>
		<polygon class="st9" points="191.4,241.2 176.6,221.1 234.7,220.4 220.1,239.6 		"/>
		<path class="st5" d="M180.2,222.9l50.8-0.5l-11.8,15.4l-26.9,1.5L180.2,222.9 M172.9,219.3l4.3,5.8l12.1,16.4l1.2,1.6h2
			c0-0.1,26.9-1.6,26.9-1.6h1.7l1-1.4l11.8-15.4l4.6-6h-7.6l-50.8,0.6L172.9,219.3L172.9,219.3z"/>
		<polygon class="st10" points="213.6,292.9 162.1,307.9 163.3,330.8 163.3,330.8 166.8,398 209.6,398.6 236.1,381.1 236.1,381.1 
			230.7,303 		"/>
		<polygon class="st1" points="160,149.6 164.2,151.8 184.9,140.9 194.2,145.4 196,142.9 188.6,130.3 		"/>
		<polygon class="st1" points="218.3,145.5 228.8,144.6 236,135 248.6,130.2 234.2,129.4 		"/>
		<polygon class="st11" points="147.2,322.3 163.3,330.8 176.6,319.5 162.1,307.9 		"/>
		<polygon class="st12" points="250.1,86.4 234.6,49.1 198.9,14.3 209.3,119.2 		"/>
		<polygon class="st13" points="67.4,155.3 82.5,186.1 108.8,179.8 117.9,201.7 137.8,194.1 125.3,147.1 100.3,138.7 		"/>
		<polygon class="st14" points="150.8,151.9 78.2,176.9 82.5,186.1 151.7,169.5 		"/>
		<polygon class="st13" points="115.5,68.3 124.1,103.6 144.2,116.6 144.2,116.6 144.5,116.1 209.3,119.2 166.3,49.7 		"/>
		<polygon class="st1" points="67.4,155.3 125.3,147.1 144.2,116.6 115.5,68.3 		"/>
		<polygon class="st5" points="159.6,180.8 165.2,164.9 191.3,163.5 194,158 157.3,156.5 		"/>
		<polygon class="st5" points="236.1,158.5 225.4,163.4 222,180 217.6,155 		"/>
		<polygon class="st6" points="209.3,119.2 244.3,103.1 241.7,93.3 		"/>
		<polygon class="st5" points="218.3,145.5 213.8,151.2 242.3,151.1 248.6,130.2 236,135 228.8,144.6 		"/>
		<polygon class="st5" points="194.2,145.4 196.5,151.8 164,151.9 184.9,140.9 		"/>
		<polygon class="st5" points="159.3,187.4 199.9,193.2 199.6,186.3 		"/>
		<polygon class="st5" points="214.7,193.3 247.8,183.8 214.5,187.6 		"/>
		<polygon class="st6" points="194.3,269.1 147.7,270.7 162.1,307.9 180.9,300.4 193.8,277 		"/>
		<path class="st15" d="M216.4,151.1L216.4,151.1h-0.8h-2.4l0,0l-14.7,0.5l-47.6,0.2l1.9,36.6l47-2.2l-0.9-27.2l14.7-0.5l1.1,29.1
			l46.9-2.2l-0.6-34.3h-44.5H216.4z M191.6,179.2l-31.9,1.6l-1.1-21.5h32.7L191.6,179.2z M254,178.4l-31.9,1.6l-1.1-21.5h32.7
			L254,178.4z"/>
		<path class="st16" d="M244.3,165c1.2,2.7,0,5.9-2.6,7.2s-5.9,0-7.2-2.6c-1.2-2.7,0-5.9,2.6-7.2C239.8,161.2,243,162.4,244.3,165z"
			/>
		<path class="st16" d="M189.2,166c1.2,2.7,0,5.9-2.6,7.2s-5.9,0-7.2-2.6s0-5.9,2.6-7.2C184.7,162.2,187.9,163.4,189.2,166z"/>
		<polygon class="st17" points="144.6,393.7 144.6,393.7 167.1,407.6 189.9,392.4 163.3,330.8 		"/>
		<polygon class="st14" points="120.7,275.4 105.4,292.9 143.1,333.5 162.1,307.9 		"/>
		<polygon class="st14" points="162.1,307.9 180.9,328.7 213.6,292.9 193.8,277 		"/>
	</g>
</g>
</svg>
